<svg preserveAspectRatio="none" overflow="visible" style="display: block;" width="24" height="24" viewBox="0 0 24 24" fill="none" xmlns="http://www.w3.org/2000/svg">
<g id="contact">
<g id="Icon">
<path d="M2 2H22V4H2V2Z" fill="#9a0002"/>
<path d="M0 4H2V20H0V4Z" fill="#9a0002"/>
<path d="M22 4H24V20H22V4Z" fill="#9a0002"/>
<path d="M2 20H22V22H2V20Z" fill="#9a0002"/>
<path d="M14 7H20V9H14V7Z" fill="#9a0002"/>
<path d="M14 11H20V13H14V11Z" fill="#9a0002"/>
<path d="M14 15H18V17H14V15Z" fill="#9a0002"/>
<path d="M6 7H10V11H6V7Z" fill="#9a0002"/>
<path d="M6 13H10V15H6V13Z" fill="#9a0002"/>
<path d="M10 15H12V17H10V15Z" fill="#9a0002"/>
<path d="M4 15H6L6 17H4V15Z" fill="#9a0002"/>
</g>
</g>
</svg>
